<svg width="1400" height="760" xmlns="http://www.w3.org/2000/svg" role="img">
  <title>RISC-V Single-Cycle Datapath (RV32I)</title>
  <defs>
    <marker id="da" markerWidth="7" markerHeight="5" refX="6" refY="2.5" orient="auto">
      <path d="M0,0 L0,5 L7,2.5z" fill="#1d4ed8"/>
    </marker>
    <marker id="ra" markerWidth="7" markerHeight="5" refX="6" refY="2.5" orient="auto">
      <path d="M0,0 L0,5 L7,2.5z" fill="#b91c1c"/>
    </marker>
  </defs>
  <style>
    text { font-family: "Courier New", Courier, monospace; }
    .mod  { fill:#ffffff; stroke:#374151; stroke-width:2; }
    .cmod { fill:#fff5f5; stroke:#b91c1c; stroke-width:2; }
    .mux  { fill:#eff6ff; stroke:#374151; stroke-width:1.5; }
    .add  { fill:#fefce8; stroke:#374151; stroke-width:1.5; }
    .mn   { font-size:13px; font-weight:bold; fill:#111; }
    .pl   { font-size:10px; fill:#4b5563; }
    .cl   { font-size:10px; fill:#b91c1c; }
    .sl   { font-size:9px;  fill:#6b7280; }
    .xs   { font-size:8px;  fill:#b91c1c; }
    .dw   { stroke:#1d4ed8; stroke-width:2;   fill:none; marker-end:url(#da); }
    .bw   { stroke:#1d4ed8; stroke-width:3;   fill:none; marker-end:url(#da); }
    .cw   { stroke:#b91c1c; stroke-width:1.5; fill:none; stroke-dasharray:5,3; marker-end:url(#ra); }
    .jn   { fill:#1d4ed8; }
  </style>

  <rect width="1400" height="760" fill="#f9fafb"/>
  <text x="700" y="27" text-anchor="middle" class="mn" font-size="15">RISC-V Single-Cycle Datapath (RV32I)</text>
  <line x1="1230" y1="44" x2="1268" y2="44" class="dw"/>
  <text x="1272" y="48" class="sl" fill="#1d4ed8">data</text>
  <line x1="1230" y1="58" x2="1268" y2="58" class="cw"/>
  <text x="1272" y="62" class="sl" fill="#b91c1c">control</text>

  <!-- ══════════════════════════════════════════
       PC   (95, 316, 88, 72)
  ══════════════════════════════════════════ -->
  <rect x="95" y="316" width="88" height="72" rx="3" class="mod"/>
  <text x="139" y="330" text-anchor="middle" class="mn">PC</text>
  <text x="100" y="344" text-anchor="start" class="pl">clk</text>
  <text x="100" y="357" text-anchor="start" class="pl">rst</text>
  <text x="100" y="370" text-anchor="start" class="pl">next_pc</text>
  <text x="178" y="357" text-anchor="end"   class="pl">pc_addr</text>

  <!-- ══════════════════════════════════════════
       instr_mem   (220, 262, 125, 122)
  ══════════════════════════════════════════ -->
  <rect x="220" y="262" width="125" height="122" rx="3" class="mod"/>
  <text x="282" y="326" text-anchor="middle" class="mn">instr_mem</text>
  <text x="226" y="310" text-anchor="start" class="pl">addr</text>
  <text x="339" y="310" text-anchor="end"   class="pl">instr[31:0]</text>

  <!-- ══════════════════════════════════════════
       control_unit   (408, 46, 172, 108)
       name top, opcode mid-left, outputs mid-right
  ══════════════════════════════════════════ -->
  <rect x="408" y="46" width="172" height="108" rx="3" class="cmod"/>
  <text x="494" y="64"  text-anchor="middle" class="mn">control_unit</text>
  <!-- left input, vertically centered in the block -->
  <text x="414" y="104" text-anchor="start"  class="cl">opcode[6:0]</text>
  <!-- right outputs, spaced below the name -->
  <text x="574" y="78"  text-anchor="end" class="cl">RegWrite</text>
  <text x="574" y="90"  text-anchor="end" class="cl">ALUSrc</text>
  <text x="574" y="102" text-anchor="end" class="cl">ALUOp[1:0]</text>
  <text x="574" y="114" text-anchor="end" class="cl">MemWrite</text>
  <text x="574" y="126" text-anchor="end" class="cl">MemRead</text>
  <text x="574" y="138" text-anchor="end" class="cl">MemToReg</text>
  <text x="574" y="148" text-anchor="end" class="cl">Branch  Jump</text>

  <!-- ══════════════════════════════════════════
       alu_control   (762, 46, 138, 74)
  ══════════════════════════════════════════ -->
  <rect x="762" y="46" width="138" height="74" rx="3" class="cmod"/>
  <text x="831" y="88"  text-anchor="middle" class="mn">alu_control</text>
  <text x="769" y="66"  text-anchor="start"  class="cl">ALUOp</text>
  <text x="769" y="80"  text-anchor="start"  class="pl">funct7[5]</text>
  <text x="769" y="94"  text-anchor="start"  class="pl">funct3</text>
  <!-- alu_ctrl output label inside bottom of block -->
  <text x="831" y="114" text-anchor="middle" class="cl">alu_ctrl</text>

  <!-- ══════════════════════════════════════════
       reg_file   (408, 262, 144, 148)
       RegWrite enters from TOP CENTER
  ══════════════════════════════════════════ -->
  <rect x="408" y="262" width="144" height="148" rx="3" class="mod"/>
  <text x="480" y="340" text-anchor="middle" class="mn">reg_file</text>
  <!-- control input at top center -->
  <text x="480" y="277" text-anchor="middle" class="cl">RegWrite</text>
  <!-- left data inputs -->
  <text x="414" y="294" text-anchor="start" class="pl">clk</text>
  <text x="414" y="312" text-anchor="start" class="pl">rs1[4:0]</text>
  <text x="414" y="328" text-anchor="start" class="pl">rs2[4:0]</text>
  <text x="414" y="364" text-anchor="start" class="pl">rd[4:0]</text>
  <text x="414" y="396" text-anchor="start" class="pl">WriteData</text>
  <!-- right outputs -->
  <text x="546" y="305" text-anchor="end" class="pl">rd1</text>
  <text x="546" y="378" text-anchor="end" class="pl">rd2</text>

  <!-- ══════════════════════════════════════════
       imm_gen   (408, 460, 144, 58)
  ══════════════════════════════════════════ -->
  <rect x="408" y="460" width="144" height="58" rx="3" class="mod"/>
  <text x="480" y="494" text-anchor="middle" class="mn">imm_gen</text>
  <text x="414" y="487" text-anchor="start" class="pl">instr[31:0]</text>
  <text x="546" y="487" text-anchor="end"   class="pl">imm</text>

  <!-- ══════════════════════════════════════════
       MUX A  3:1   (612, 292, 45, 102)
       inputs inside; sel at top center
  ══════════════════════════════════════════ -->
  <rect x="612" y="292" width="45" height="102" rx="2" class="mux"/>
  <text x="634" y="303" text-anchor="middle" class="xs">sel</text>
  <text x="617" y="318" text-anchor="start"  class="sl">0</text>
  <text x="634" y="344" text-anchor="middle" font-size="9" font-weight="bold" fill="#111">MUX</text>
  <text x="617" y="348" text-anchor="start"  class="sl">1</text>
  <text x="634" y="356" text-anchor="middle" font-size="8" fill="#374151">A</text>
  <text x="617" y="378" text-anchor="start"  class="sl">2</text>
  <!-- output label outside right -->
  <text x="660" y="348" text-anchor="start" class="sl">alu_a</text>

  <!-- ══════════════════════════════════════════
       MUX B  2:1   (612, 428, 45, 68)
  ══════════════════════════════════════════ -->
  <rect x="612" y="428" width="45" height="68" rx="2" class="mux"/>
  <text x="634" y="439" text-anchor="middle" class="xs">sel</text>
  <text x="617" y="452" text-anchor="start"  class="sl">0</text>
  <text x="634" y="463" text-anchor="middle" font-size="9" font-weight="bold" fill="#111">MUX</text>
  <text x="634" y="474" text-anchor="middle" font-size="8" fill="#374151">B</text>
  <text x="617" y="484" text-anchor="start"  class="sl">1</text>
  <!-- output label outside right -->
  <text x="660" y="463" text-anchor="start" class="sl">alu_b</text>

  <!-- ══════════════════════════════════════════
       ALU   (700, 280, 128, 132)
       alu_ctrl enters from TOP
  ══════════════════════════════════════════ -->
  <rect x="700" y="280" width="128" height="132" rx="3" class="mod"/>
  <text x="764" y="350" text-anchor="middle" class="mn">ALU</text>
  <!-- control input at top center inside -->
  <text x="764" y="295" text-anchor="middle" class="cl">alu_ctrl</text>
  <!-- left inputs -->
  <text x="707" y="320" text-anchor="start" class="pl">a</text>
  <text x="707" y="392" text-anchor="start" class="pl">b</text>
  <!-- right outputs -->
  <text x="821" y="328" text-anchor="end"   class="pl">result</text>
  <text x="821" y="358" text-anchor="end"   class="pl">zero</text>

  <!-- ══════════════════════════════════════════
       data_mem   (920, 258, 138, 132)
       MemRead/MemWrite enter from TOP
  ══════════════════════════════════════════ -->
  <rect x="920" y="258" width="138" height="132" rx="3" class="mod"/>
  <text x="989" y="328" text-anchor="middle" class="mn">data_mem</text>
  <!-- control inputs at top inside -->
  <text x="944" y="273" text-anchor="middle" class="cl">MemRead</text>
  <text x="1028" y="273" text-anchor="middle" class="cl">MemWrite</text>
  <!-- left data inputs -->
  <text x="927" y="298" text-anchor="start" class="pl">addr</text>
  <text x="927" y="325" text-anchor="start" class="pl">writeData</text>
  <!-- right output -->
  <text x="1051" y="302" text-anchor="end"  class="pl">readData</text>

  <!-- ══════════════════════════════════════════
       MUX WB  3:1   (1130, 288, 45, 102)
  ══════════════════════════════════════════ -->
  <rect x="1130" y="288" width="45" height="102" rx="2" class="mux"/>
  <text x="1152" y="300" text-anchor="middle" class="xs">sel</text>
  <text x="1135" y="314" text-anchor="start"  class="sl">0</text>
  <text x="1152" y="340" text-anchor="middle" font-size="9" font-weight="bold" fill="#111">MUX</text>
  <text x="1135" y="344" text-anchor="start"  class="sl">1</text>
  <text x="1152" y="352" text-anchor="middle" font-size="8" fill="#374151">WB</text>
  <text x="1135" y="374" text-anchor="start"  class="sl">2</text>
  <!-- output label outside right -->
  <text x="1178" y="344" text-anchor="start" class="sl">write_back</text>

  <!-- ══════════════════════════════════════════
       MUX PC  4:1   (44, 480, 45, 112)
  ══════════════════════════════════════════ -->
  <rect x="44" y="480" width="45" height="112" rx="2" class="mux"/>
  <text x="66" y="492"  text-anchor="middle" class="xs">sel</text>
  <text x="49" y="504"  text-anchor="start"  class="sl">0</text>
  <text x="66" y="533"  text-anchor="middle" font-size="9" font-weight="bold" fill="#111">MUX</text>
  <text x="49" y="520"  text-anchor="start"  class="sl">1</text>
  <text x="66" y="544"  text-anchor="middle" font-size="8" fill="#374151">PC</text>
  <text x="49" y="536"  text-anchor="start"  class="sl">2</text>
  <text x="49" y="552"  text-anchor="start"  class="sl">3</text>
  <!-- output label outside right -->
  <text x="92" y="534"  text-anchor="start" class="sl">next_pc</text>

  <!-- ══════════════════════════════════════════
       +4 Adder   (188, 490, 70, 36)
  ══════════════════════════════════════════ -->
  <rect x="188" y="490" width="70" height="36" rx="2" class="add"/>
  <text x="223" y="513" text-anchor="middle" font-size="12" font-weight="bold" fill="#111">+4</text>
  <text x="194" y="505" text-anchor="start"  class="sl">pc_addr</text>
  <text x="252" y="522" text-anchor="end"    class="sl">pc_plus4</text>

  <!-- ══════════════════════════════════════════
       pc_target Adder   (568, 550, 88, 36)
  ══════════════════════════════════════════ -->
  <rect x="568" y="550" width="88" height="36" rx="2" class="add"/>
  <text x="612" y="573" text-anchor="middle" font-size="11" font-weight="bold" fill="#111">pc+imm</text>
  <text x="575" y="563" text-anchor="start"  class="sl">pc_addr</text>
  <text x="575" y="578" text-anchor="start"  class="sl">imm</text>
  <text x="648" y="573" text-anchor="end"    class="sl">pc_target</text>

  <!-- ════════════════════════════════════════════════
                         WIRES
  ════════════════════════════════════════════════ -->

  <!-- MUX PC → PC next_pc -->
  <polyline points="89,534 95,534 95,370" class="dw"/>

  <!-- PC → instr_mem addr -->
  <polyline points="183,352 202,352 202,306 220,306" class="dw"/>
  <circle cx="202" cy="352" r="4" class="jn"/>

  <!-- pc_addr → +4 adder top -->
  <polyline points="202,352 202,490" class="dw"/>

  <!-- pc_addr → pc+imm adder top input -->
  <polyline points="202,352 202,563 568,563" class="dw"/>

  <!-- instr bus from instr_mem right → junction at x=390 -->
  <line x1="345" y1="306" x2="390" y2="306" stroke="#1d4ed8" stroke-width="3" fill="none"/>
  <circle cx="390" cy="306" r="4" class="jn"/>

  <!-- instr → control_unit opcode (up, enters left at y=104) -->
  <polyline points="390,306 390,104 408,104" class="bw"/>

  <!-- instr → reg_file: branch arrows for rs1, rs2, rd -->
  <circle cx="390" cy="312" r="4" class="jn"/>
  <polyline points="390,312 408,312" class="dw"/>
  <circle cx="390" cy="328" r="4" class="jn"/>
  <polyline points="390,328 408,328" class="dw"/>
  <circle cx="390" cy="364" r="4" class="jn"/>
  <polyline points="390,364 408,364" class="dw"/>

  <!-- instr → imm_gen (down, enters left at y=480) -->
  <polyline points="390,306 390,480 408,480" class="dw"/>

  <!-- instr[30],[14:12] → alu_control left (route via y=232) -->
  <polyline points="390,306 390,232 748,232 748,80 762,80" class="dw"/>
  <!-- funct3 branch: junction on vertical x=748 wire between y=80 and y=232 -->
  <circle cx="748" cy="94" r="4" class="jn"/>
  <polyline points="748,94 762,94" class="dw"/>

  <!-- rd1: reg_file right → MUX A input 2 (y=378) -->
  <polyline points="552,303 574,303 574,378 612,378" class="dw"/>

  <!-- pc_addr → MUX A input 1 (y=348) -->
  <polyline points="202,344 598,344 612,344" class="dw"/>

  <!-- 0 → MUX A input 0 (y=318) — short stub -->
  <line x1="600" y1="318" x2="612" y2="318" class="dw"/>

  <!-- rd2: reg_file right → MUX B input 0 (y=452) -->
  <polyline points="552,376 582,376 582,452 612,452" class="dw"/>
  <circle cx="582" cy="376" r="4" class="jn"/>
  <!-- rd2 also → data_mem writeData (route below reg_file) -->
  <polyline points="582,376 582,418 900,418 900,325 920,325" class="dw"/>

  <!-- imm: imm_gen right → MUX B input 1 (y=484) -->
  <polyline points="552,487 590,487 590,484 612,484" class="dw"/>
  <circle cx="590" cy="487" r="4" class="jn"/>
  <!-- imm also → pc+imm adder bottom input -->
  <polyline points="590,487 590,578 568,578" class="dw"/>

  <!-- MUX A output → ALU a -->
  <polyline points="657,348 672,348 672,317 700,317" class="dw"/>

  <!-- MUX B output → ALU b -->
  <polyline points="657,463 676,463 676,390 700,390" class="dw"/>

  <!-- alu_ctrl: alu_control bottom → bend left → ALU top center (x=764) -->
  <polyline points="831,120 831,200 764,200 764,280" class="cw"/>

  <!-- ALU result → data_mem addr -->
  <polyline points="828,325 866,325 866,295 920,295" class="dw"/>
  <circle cx="866" cy="325" r="4" class="jn"/>

  <!-- ALU result → MUX WB input 2 (y=374) -->
  <polyline points="866,325 866,374 1130,374" class="dw"/>

  <!-- ALU result → MUX PC input 0 / JALR (deep bottom loop) -->
  <polyline points="866,325 866,636 28,636 28,504 44,504" class="dw"/>

  <!-- ALU zero → branch_taken stub -->
  <line x1="828" y1="355" x2="856" y2="355" stroke="#1d4ed8" stroke-width="2" fill="none"/>
  <text x="858" y="351" class="sl" fill="#1d4ed8">zero → branch_taken</text>

  <!-- data_mem readData → MUX WB input 1 (y=344) -->
  <polyline points="1058,299 1102,299 1102,344 1130,344" class="dw"/>

  <!-- pc_plus4: +4 right → MUX WB input 0 (y=314), route via y=220 -->
  <polyline points="258,508 280,508 280,220 1112,220 1112,314 1130,314" class="dw"/>
  <circle cx="280" cy="508" r="4" class="jn"/>
  <!-- pc_plus4 also → MUX PC input 3 (y=552) -->
  <polyline points="280,508 280,552 44,552" class="dw"/>

  <!-- pc_target: adder right → MUX PC input 1 (y=520) and 2 (y=536) -->
  <polyline points="656,568 686,568 686,616 14,616 14,520 44,520" class="dw"/>
  <circle cx="14" cy="520" r="4" class="jn"/>
  <line x1="14" y1="520" x2="14" y2="536" stroke="#1d4ed8" stroke-width="2"/>
  <polyline points="14,536 44,536" class="dw"/>

  <!-- write_back: MUX WB right → reg_file WriteData (bottom loop) -->
  <polyline points="1175,344 1210,344 1210,706 390,706 390,396 408,396" class="dw"/>

  <!-- ════════════════════════════════════════════════
                     CONTROL SIGNALS
       All exit control_unit bottom at y=154
  ════════════════════════════════════════════════ -->

  <!-- RegWrite → reg_file top center (x=480 straight down) -->
  <polyline points="480,154 480,262" class="cw"/>

  <!-- ALUSrc → MUX B sel top (x=634) -->
  <polyline points="450,154 450,176 634,176 634,428" class="cw"/>

  <!-- ALUOp → alu_control left ALUOp port -->
  <polyline points="470,154 470,188 748,188 748,66 762,66" class="cw"/>

  <!-- MemRead → data_mem top (x=944) -->
  <polyline points="492,154 492,198 944,198 944,258" class="cw"/>

  <!-- MemWrite → data_mem top (x=1028) -->
  <polyline points="510,154 510,208 1028,208 1028,258" class="cw"/>

  <!-- MemToReg → MUX WB sel top (x=1152) -->
  <polyline points="530,154 530,216 1152,216 1152,288" class="cw"/>

  <!-- Jump → MUX WB sel top (offset) + drives MUX PC -->
  <polyline points="545,154 545,220 1154,220 1154,288" class="cw"/>

  <!-- Branch → MUX PC sel top (x=66), route left via y=166 -->
  <polyline points="420,154 420,166 66,166 66,480" class="cw"/>

  <!-- MUX A sel: is_lui/is_auipc decoded from opcode (stub) -->
  <line x1="634" y1="292" x2="634" y2="280" class="cw"/>
  <text x="636" y="278" text-anchor="start" font-size="8" fill="#b91c1c">opcode</text>

</svg>
